<svg width="42" height="42" viewBox="0 0 42 42" fill="none" xmlns="http://www.w3.org/2000/svg">
<g clip-path="url(#clip0_43_853)">
<path d="M0 21C0 32.5979 9.40211 42 21 42C32.5979 42 42 32.5979 42 21C42 9.40211 32.5979 0 21 0C9.40211 0 0 9.40211 0 21Z" fill="#D8D8D8"/>
<path d="M7.27441 36.8943C9.6167 34.5601 12.7888 33.2496 16.0957 33.25H25.5587C27.2339 33.2498 28.892 33.5866 30.4345 34.2401C31.977 34.8937 33.3723 35.8507 34.5374 37.0544C30.7534 40.2546 25.9559 42.0072 21 41.9999C15.7525 41.9999 10.9549 40.075 7.27441 36.8943Z" fill="#5985FF"/>
<path d="M25.7266 33.2513C25.7266 35.9569 23.5325 38.151 20.8269 38.151C18.1208 38.151 15.9268 35.9569 15.9268 33.2513L16.0948 33.25H25.5582C25.6141 33.25 25.6703 33.25 25.7262 33.2513H25.7266Z" fill="white"/>
<path d="M18.7274 26.25H22.9274C23.2987 26.25 23.6548 26.3975 23.9173 26.66C24.1798 26.9225 24.3273 27.2786 24.3273 27.6499V33.2501C24.3273 34.1784 23.9585 35.0687 23.3021 35.7251C22.6457 36.3814 21.7555 36.7502 20.8272 36.7502C19.8989 36.7502 19.0087 36.3814 18.3523 35.7251C17.6959 35.0687 17.3271 34.1784 17.3271 33.2501V27.6499C17.3271 27.466 17.3634 27.2839 17.4338 27.114C17.5042 26.9441 17.6074 26.7897 17.7375 26.6597C17.8675 26.5297 18.022 26.4266 18.1919 26.3563C18.3618 26.286 18.5439 26.2499 18.7278 26.25H18.7274Z" fill="#E2ECFF"/>
<path d="M28.6268 22.3477L28.568 23.0293C28.2316 27.0273 24.888 30.1004 20.8757 30.1004C16.8639 30.1004 13.5211 27.0273 13.1838 23.0293L13.1297 22.3909C12.6671 22.4299 12.208 22.2836 11.8534 21.984C11.4987 21.6845 11.2776 21.2564 11.2386 20.7939C11.1996 20.3313 11.346 19.8722 11.6455 19.5176C11.945 19.1629 12.3731 18.9418 12.8357 18.9028L12.7546 17.9368C12.3758 13.4512 15.7051 9.50743 20.1903 9.12817C20.4184 9.10921 20.6472 9.09968 20.8761 9.09961H28.9838C29.0807 9.09956 29.1765 9.11963 29.2653 9.15853C29.354 9.19744 29.4337 9.25434 29.4993 9.32564C29.5649 9.39694 29.615 9.48108 29.6465 9.57273C29.6779 9.66439 29.6899 9.76157 29.6818 9.85813L28.9166 18.9037C29.1691 18.8849 29.4227 18.9211 29.6599 19.0099C29.897 19.0986 30.1121 19.2378 30.2902 19.4178C30.4684 19.5977 30.6053 19.8142 30.6917 20.0523C30.778 20.2903 30.8117 20.5443 30.7903 20.7966C30.769 21.0489 30.6931 21.2936 30.568 21.5137C30.4429 21.7339 30.2715 21.9243 30.0656 22.0717C29.8598 22.2192 29.6244 22.3202 29.3757 22.3679C29.127 22.4155 28.8709 22.4086 28.6251 22.3477H28.6268Z" fill="white"/>
<path d="M18.2002 23.8008H23.8005C23.8005 24.5434 23.5055 25.2557 22.9803 25.7808C22.4552 26.3059 21.743 26.6009 21.0003 26.6009C20.2577 26.6009 19.5455 26.3059 19.0203 25.7808C18.4952 25.2557 18.2002 24.5434 18.2002 23.8008Z" fill="#5985FF"/>
</g>
<defs>
<clipPath id="clip0_43_853">
<rect width="42" height="42" fill="white"/>
</clipPath>
</defs>
</svg>
